<svg xmlns="http://www.w3.org/2000/svg" xmlns:xlink="http://www.w3.org/1999/xlink" width="112.025" height="87.378" viewBox="0 0 112.025 87.378"><defs><clipPath id="a"><rect width="112.025" height="87.378" fill="none"/></clipPath></defs><g transform="translate(0 0)"><g transform="translate(0 0)" clip-path="url(#a)"><path d="M.166,60.592V51.329H3.387c1.965,0,3.5.9,3.5,2.807a2.494,2.494,0,0,1-2.1,2.544c.747.359,1.147,1.12,1.686,2.212l.844,1.7H5.794L5.018,59.03c-.551-1.092-1.006-1.812-2.307-1.812H1.564L1.55,60.592ZM1.577,52.63l-.013,3.332H3.374c1.188,0,2.06-.582,2.06-1.7,0-1.147-.913-1.632-2.033-1.632Z" transform="translate(0.076 23.511)" fill="#fff"/><path d="M7.737,55.946h3.308a1.85,1.85,0,0,0-1.961-1.811,2.1,2.1,0,0,0-2.059,2.328,2.193,2.193,0,0,0,2.224,2.345A2.143,2.143,0,0,0,11.225,57.7l1.054.539a3.238,3.238,0,0,1-3.015,1.782,3.473,3.473,0,0,1-3.593-3.581A3.4,3.4,0,0,1,9.1,52.9a3.2,3.2,0,0,1,3.316,3.374v.554H7.443Z" transform="translate(2.598 24.232)" fill="#fff"/><path d="M69.441,55.946h3.308a1.85,1.85,0,0,0-1.961-1.811,2.1,2.1,0,0,0-2.059,2.328,2.193,2.193,0,0,0,2.224,2.345A2.143,2.143,0,0,0,72.929,57.7l1.054.539a3.238,3.238,0,0,1-3.015,1.782,3.473,3.473,0,0,1-3.593-3.581A3.4,3.4,0,0,1,70.8,52.9a3.2,3.2,0,0,1,3.316,3.374v.554h-4.97Z" transform="translate(30.861 24.232)" fill="#fff"/><path d="M11.745,60.592V51.33H15c2.266,0,3.647.9,3.647,2.461a2.121,2.121,0,0,1-1.591,2.17,1.975,1.975,0,0,1,1.729,2.073c0,1.92-1.7,2.557-3.857,2.557Zm1.411-5.2h1.881c1.547,0,2.2-.469,2.2-1.506,0-.911-.8-1.384-2.172-1.384H13.156Zm0,4.023H15c1.27,0,2.377-.248,2.377-1.478,0-1.01-.745-1.369-2.336-1.369H13.156Z" transform="translate(5.38 23.511)" fill="#fff"/><path d="M17.88,59.854V55.816a2.606,2.606,0,0,1,2.708-2.875,2.866,2.866,0,0,1,1.216.251v1.353a2.182,2.182,0,0,0-1.091-.29,1.433,1.433,0,0,0-1.465,1.618v3.98Z" transform="translate(8.19 24.249)" fill="#fff"/><path d="M23.377,53.373v6.283H22.01V53.667Z" transform="translate(10.081 24.447)" fill="#fff"/><path d="M22.01,52.065l1.368-.295v1.274l-1.368.295Z" transform="translate(10.082 23.713)" fill="#fff"/><path d="M24.545,61.3l1.149-.621a2.321,2.321,0,0,0,2.127,1.2,2.362,2.362,0,0,0,2.39-2.611v-.538a2.739,2.739,0,0,1-2.4,1.229,3.43,3.43,0,0,1-3.44-3.511,3.608,3.608,0,0,1,7.214.015v2.792a3.633,3.633,0,0,1-3.734,3.883,3.527,3.527,0,0,1-3.3-1.839M30.2,56.433a2.239,2.239,0,0,0-4.478,0,2.239,2.239,0,1,0,4.478,0" transform="translate(11.161 24.241)" fill="#fff"/><path d="M30.723,60.787V51.2l1.368-.293v3.868a3.071,3.071,0,0,1,2.253-.924c1.992,0,3.109,1.327,3.109,3.4v3.539H36.086v-3.4a2,2,0,0,0-1.949-2.241,2.1,2.1,0,0,0-2.046,2.282v3.359Z" transform="translate(14.073 23.316)" fill="#fff"/><path d="M37.74,57.928V54.776H36.4V53.587h1.34V52.125l1.368-.293v1.755h2.6v1.188h-2.6v3.11a1.277,1.277,0,0,0,1.34,1.411,2.309,2.309,0,0,0,1.26-.4v1.258a2.613,2.613,0,0,1-1.381.386,2.4,2.4,0,0,1-2.587-2.611" transform="translate(16.673 23.741)" fill="#fff"/><path d="M47.405,56.623v3.969H45.994V51.624l1.411-.295v5.294Zm.765-1.3h4.141v-3.7l1.411-.295v9.263H52.312V56.623H47.726Z" transform="translate(21.067 23.511)" fill="#fff"/><path d="M52.363,56.462a3.608,3.608,0,1,1,3.62,3.565,3.563,3.563,0,0,1-3.62-3.565m5.845.013a2.239,2.239,0,1,0-2.225,2.254,2.232,2.232,0,0,0,2.225-2.254" transform="translate(23.985 24.241)" fill="#fff"/><path d="M69.963,56.3v3.566H68.6V56.526c0-1.231-.608-2.31-1.881-2.31-1.229,0-1.853,1.037-1.853,2.28v3.374H63.494V56.5c0-1.244-.621-2.28-1.881-2.28s-1.837,1.079-1.837,2.31v3.345H58.408V56.318c0-1.894,1.077-3.415,3.11-3.415A2.643,2.643,0,0,1,64.2,54.645,2.637,2.637,0,0,1,66.812,52.9a3.1,3.1,0,0,1,3.151,3.4" transform="translate(26.754 24.232)" fill="#fff"/><path d="M73.108,58.5l1.05-.58a1.655,1.655,0,0,0,1.645.924c.773,0,1.368-.316,1.368-.911,0-1.423-3.883-.346-3.883-2.931,0-1.188,1.05-2.06,2.528-2.06a2.743,2.743,0,0,1,2.543,1.369l-1.05.595a1.494,1.494,0,0,0-1.465-.8c-.636,0-1.188.332-1.188.87,0,1.384,3.883.373,3.883,2.931,0,1.286-1.242,2.1-2.681,2.1A2.879,2.879,0,0,1,73.108,58.5" transform="translate(33.487 24.249)" fill="#fff"/><path d="M23.628,32.887h10.38l.022-4.9-10.4-.017Z" transform="translate(10.823 12.813)" fill="#fff"/><path d="M47.78,25.669,32.395,12.885a.066.066,0,0,0-.042-.016H.068a.068.068,0,0,0-.044.12L15.5,25.851a.062.062,0,0,0,.042.015H47.7a.816.816,0,0,1,.55.19l-.144-.12L79.115,51.717a.07.07,0,0,0,.044.016h27.473a.068.068,0,0,0,.042-.12L75.979,26.1c-.1-.09-.082-.23.052-.23h27.156a.067.067,0,0,0,.044-.118L73.143.016A.07.07,0,0,0,73.1,0H45.627a.068.068,0,0,0-.042.12L75.435,25.647c.125.1.028.219-.114.219H48.341a.8.8,0,0,1-.551-.19Z" transform="translate(0 0)" fill="#fff"/></g></g></svg>