<svg xmlns="http://www.w3.org/2000/svg" xmlns:xlink="http://www.w3.org/1999/xlink" width="163.257" height="119.138" viewBox="0 0 163.257 119.138"><defs><clipPath id="a"><rect width="163.257" height="119.138" fill="none"/></clipPath></defs><g transform="translate(0 0)"><g transform="translate(0 0)" clip-path="url(#a)"><path d="M3.829,91.52V78.4H8.391c2.783,0,4.954,1.275,4.954,3.974a3.532,3.532,0,0,1-2.974,3.6c1.056.509,1.627,1.585,2.387,3.132l1.195,2.408H11.8l-1.1-2.211c-.778-1.548-1.425-2.565-3.265-2.565H5.809L5.789,91.52Zm2-11.276-.019,4.717H8.372c1.684,0,2.917-.822,2.917-2.408,0-1.623-1.29-2.309-2.878-2.309Z" transform="translate(1.122 22.979)" fill="#272d2c"/><path d="M15.546,85.226h4.686a2.622,2.622,0,0,0-2.779-2.565c-1.625,0-2.916,1.225-2.916,3.3a3.106,3.106,0,0,0,3.151,3.319,3.035,3.035,0,0,0,2.8-1.566l1.492.763A4.584,4.584,0,0,1,17.707,91a4.918,4.918,0,0,1-5.087-5.07,4.816,4.816,0,0,1,4.853-5.012,4.531,4.531,0,0,1,4.7,4.777v.785H15.13Z" transform="translate(3.699 23.716)" fill="#272d2c"/><path d="M114.078,85.226h4.686a2.622,2.622,0,0,0-2.779-2.565c-1.625,0-2.916,1.225-2.916,3.3a3.106,3.106,0,0,0,3.151,3.319,3.035,3.035,0,0,0,2.8-1.566l1.492.763A4.584,4.584,0,0,1,116.239,91a4.918,4.918,0,0,1-5.087-5.07A4.816,4.816,0,0,1,116,80.917a4.531,4.531,0,0,1,4.7,4.777v.785h-7.041Z" transform="translate(32.577 23.716)" fill="#272d2c"/><path d="M22.319,91.521V78.4h4.6c3.209,0,5.165,1.275,5.165,3.486a3,3,0,0,1-2.251,3.072A2.8,2.8,0,0,1,32.285,87.9c0,2.721-2.405,3.622-5.461,3.622Zm2-7.362h2.664c2.19,0,3.112-.665,3.112-2.134,0-1.29-1.138-1.958-3.075-1.958h-2.7Zm0,5.7h2.606c1.8,0,3.367-.352,3.367-2.095,0-1.43-1.056-1.938-3.309-1.938H24.318Z" transform="translate(6.541 22.979)" fill="#272d2c"/><path d="M32.116,90.767V85.05c0-2.329,1.329-4.072,3.835-4.072a4.065,4.065,0,0,1,1.721.354V83.25a3.08,3.08,0,0,0-1.544-.411,2.028,2.028,0,0,0-2.075,2.29v5.638Z" transform="translate(9.413 23.734)" fill="#272d2c"/><path d="M40.647,81.666v8.9H38.71V82.082Z" transform="translate(11.345 23.935)" fill="#272d2c"/><path d="M38.71,79.524l1.937-.416v1.8l-1.937.416Z" transform="translate(11.345 23.185)" fill="#ffec00"/><path d="M42.727,92.809l1.627-.879a3.291,3.291,0,0,0,3.013,1.7c2.017,0,3.385-1.448,3.385-3.7v-.763a3.884,3.884,0,0,1-3.4,1.74,4.859,4.859,0,0,1-4.874-4.971,5.111,5.111,0,0,1,10.219.018v3.956a5.146,5.146,0,0,1-5.289,5.5,5,5,0,0,1-4.677-2.6m8.005-6.891a3.171,3.171,0,0,0-6.341,0,3.171,3.171,0,1,0,6.341,0" transform="translate(12.448 23.725)" fill="#272d2c"/><path d="M52.624,91.72V78.14l1.937-.416V83.2a4.34,4.34,0,0,1,3.189-1.311c2.822,0,4.4,1.88,4.4,4.815V91.72H60.218V86.9c0-1.7-.943-3.173-2.759-3.173a2.97,2.97,0,0,0-2.9,3.23V91.72Z" transform="translate(15.423 22.78)" fill="#272d2c"/><path d="M63.587,87.84V83.376h-1.9V81.693h1.9v-2.07l1.937-.416v2.487h3.681v1.684H65.524v4.4a1.809,1.809,0,0,0,1.9,2,3.271,3.271,0,0,0,1.783-.569v1.781a3.7,3.7,0,0,1-1.955.547,3.393,3.393,0,0,1-3.663-3.7" transform="translate(18.08 23.214)" fill="#272d2c"/><path d="M79.009,85.9V91.52h-2v-12.7l2-.416v7.5Zm1.085-1.839h5.864V78.819l2-.416V91.52h-2V85.9H79.464Z" transform="translate(22.57 22.979)" fill="#272d2c"/><path d="M87.182,85.959a5.109,5.109,0,1,1,5.126,5.049,5.046,5.046,0,0,1-5.126-5.049m8.277.019a3.171,3.171,0,1,0-3.151,3.191,3.161,3.161,0,0,0,3.151-3.191" transform="translate(25.551 23.725)" fill="#272d2c"/><path d="M113.2,85.734v5.049h-1.937V86.047c0-1.743-.86-3.27-2.664-3.27-1.741,0-2.625,1.468-2.625,3.23v4.777h-1.937V86.007c0-1.762-.879-3.23-2.662-3.23-1.8,0-2.6,1.527-2.6,3.27v4.737H96.834v-5.03c0-2.683,1.526-4.837,4.4-4.837a3.741,3.741,0,0,1,3.8,2.467,3.735,3.735,0,0,1,3.7-2.467c2.9,0,4.461,2.154,4.461,4.818" transform="translate(28.38 23.715)" fill="#272d2c"/><path d="M120.308,88.849l1.486-.822a2.345,2.345,0,0,0,2.329,1.31c1.1,0,1.938-.449,1.938-1.29,0-2.016-5.5-.49-5.5-4.151,0-1.684,1.486-2.917,3.581-2.917a3.89,3.89,0,0,1,3.6,1.938l-1.488.842a2.118,2.118,0,0,0-2.077-1.135c-.9,0-1.682.471-1.682,1.234,0,1.959,5.5.529,5.5,4.151,0,1.819-1.76,2.974-3.8,2.974a4.073,4.073,0,0,1-3.891-2.132" transform="translate(35.26 23.734)" fill="#272d2c"/><path d="M37.732,51.629h14.7l.032-6.933-14.732-.025Z" transform="translate(11.058 13.092)" fill="#ffec00"/><path d="M67.666,36.352,45.877,18.247a.1.1,0,0,0-.061-.022H.1a.1.1,0,0,0-.061.168L21.956,36.61a.1.1,0,0,0,.061.022H67.547a1.138,1.138,0,0,1,.777.269l-.2-.171,43.923,36.513a.1.1,0,0,0,.061.022H151.01a.1.1,0,0,0,.061-.168L107.6,36.959c-.141-.128-.116-.326.075-.326h38.459a.1.1,0,0,0,.061-.168L103.583.022A.1.1,0,0,0,103.523,0H64.616a.1.1,0,0,0-.061.169L106.83,36.321c.178.149.039.31-.16.31H68.461a1.24,1.24,0,0,1-.53-.107,1.2,1.2,0,0,1-.251-.162Z" transform="translate(0 0)" fill="#ffec00"/><path d="M37.732,51.629h14.7l.032-6.933-14.732-.025Z" transform="translate(11.058 13.092)" fill="#ffec00"/><path d="M67.666,36.352,45.877,18.247a.1.1,0,0,0-.061-.022H.1a.1.1,0,0,0-.061.168L21.956,36.61a.1.1,0,0,0,.061.022H67.547a1.138,1.138,0,0,1,.777.269l-.2-.171,43.923,36.513a.1.1,0,0,0,.061.022H151.01a.1.1,0,0,0,.061-.168L107.6,36.959c-.141-.128-.116-.326.075-.326h38.459a.1.1,0,0,0,.061-.168L103.583.022A.1.1,0,0,0,103.523,0H64.616a.1.1,0,0,0-.061.169L106.83,36.321c.178.149.039.31-.16.31H68.461a1.24,1.24,0,0,1-.53-.107,1.2,1.2,0,0,1-.251-.162Z" transform="translate(0 0)" fill="#ffec00"/><rect width="163.257" height="119.138" fill="none"/></g></g></svg>